<?xml version="1.0" encoding="utf-8"?>
<!-- Generator: Adobe Illustrator 23.0.3, SVG Export Plug-In . SVG Version: 6.00 Build 0)  -->
<svg version="1.1" id="Layer_1" xmlns="http://www.w3.org/2000/svg" xmlns:xlink="http://www.w3.org/1999/xlink" x="0px" y="0px"
	 viewBox="0 0 534.1 534.6" style="enable-background:new 0 0 534.1 534.6;" xml:space="preserve">
<style type="text/css">
	.st0{fill:#7B4720;}
	.st1{fill:#C5DD5B;}
	.st2{fill:#B2CF2A;}
	.st3{fill:#71A024;}
	.st4{fill:#8F5833;}
	.st5{fill:#AB6B47;}
</style>
<path class="st0" d="M17.3,274.1c-6-0.4-9.8-3.3-9.7-9c0.1-6.8,4.7-9.8,11.1-9.8c5.4,0,10,2.3,9.6,8.5
	C27.8,270.2,23.2,273.3,17.3,274.1z"/>
<rect x="-0.1" class="st1" width="534.2" height="43.1"/>
<path class="st2" d="M534.1,22.3c-171.6,0-343.1,0-514.6,0c-8.4,0-14.7,0-19.5,0.5v116.6h534.1V22.3z"/>
<path class="st3" d="M0,91.2c0.7,0.3,1.3,0.5,2,0.7c0.3,0.1,0.6,0.2,1,0.3c0.7,0.2,1.3,0.4,2,0.6c0.3,0.1,0.7,0.2,1,0.2
	c0.6,0.1,1.2,0.3,1.7,0.3c6.5,1.2,12.5,0.7,15.8-0.3c28.1-9.1,57.7,22.1,83.6-5.1c5.3-5.6,8.5,1.6,11.7,4.9
	c12.2,12.8,24.9,10.7,41,6.1c20.5-5.8,42-8.5,64.3-5.7c21.3,2.7,43.4-2.2,64.6,6c3.4,1.3,10.3-1.8,13.4-5c8-8.3,13.6-9.2,22.3-0.1
	c11.1,11.5,24.9,13.4,38.7,3.4c4.8-3.5,9.5-5.9,15.8-3.8c13.4,4.4,23.4-0.8,35.4-7.9c7.6-4.5,18.2,14.7,31.7,9.8
	c11.2-4.1,20.2,0.1,30.2,4.7c26.2,12.2,43.1,10.3,57.9-9v102.6H0V91.2z"/>
<path class="st4" d="M0,121.6c0.4,0.3,17.4,4.4,19.1,4.2c0.6-0.1,1.3-0.2,1.9-0.3c1.9-0.3,4-0.8,6-1.4c0.7-0.2,1.4-0.5,2.1-0.7
	c0.7-0.3,1.4-0.5,2.1-0.8c5.8-2.3,10.4-3.2,15.6,1.1c21.3,17.8,41.8,11.9,61.9-2.6l0.1-0.1c2.4-6.5,0.9-19.3,13-5.1
	c15.2,17.9,34.9,19.9,52.8,6c8-6.3,13.2-8,22.1-1.5c12.2,8.9,25.6,7.1,38.2-0.7c3.5-2.2,10-6.6,10.1-6.4
	c18.7,26.6,49.9-2.3,72.2,17.3c15.2,13.4,36.8,2.5,55.5-21c28.2,26.3,28.5,26.5,65.7,7.6c5.6-2.9,9.2-1.5,13.5,1.6
	c13.7,9.9,27.6,8.9,42.3,1.8c13-6.3,30.8-2.4,40,1v57H0V121.6z"/>
<path class="st5" d="M534,138c-2.6-1.9-36.8-7.2-53,3.6c-6.3,4.1-14.8,2.4-20.2-2.4c-11-9.7-19.2-9.2-30.9,0.3
	c-16,12.9-33.9,11-47.6-4.8c-7.4-8.6-10.6-7.2-17.8,0c-20.4,20.6-29.7,21.6-56.6,7.4c-6.9-3.6-13-5.7-20-1.8
	c-18.2,10.1-33.8-13.1-47.2-7.1c-17.1,7.8-30.9,13-47.6,2.6c-5.6-3.5-10.4-1.6-15.9,1.1c-32,15.5-33.9,15-61.1-10.2
	c-2-1.9-4.9-2.8-7.4-4.2l-0.1,0.1c-6.6,25.5-26.3,35.4-49.6,24.4c-11.2-5.3-22.4-16.3-25.3,7.5c-0.8,6.8-11.1,8-13.4,3.3
	c-0.2-0.5-0.5-0.9-0.7-1.4c-0.2-0.3-0.4-0.7-0.6-1c-0.2-0.3-0.3-0.6-0.5-0.8c-0.4-0.7-0.9-1.3-1.4-2c-0.2-0.3-0.4-0.6-0.7-0.8
	c0-0.1-0.1-0.1-0.1-0.2c-0.2-0.3-0.5-0.5-0.7-0.8c-1-1.1-2-2.1-3.1-3.1c-0.2-0.2-0.5-0.5-0.7-0.7c-3.1-2.7-6.4-5.1-9.8-7.5
	c-0.6-0.4-1.2-0.9-1.8-1.3c-0.1-0.1-0.2-0.1-0.3-0.2V286h534V138z"/>
<path class="st4" d="M323.6,207.1C323.6,207.1,323.6,207.1,323.6,207.1C323.6,207,323.6,207,323.6,207.1L323.6,207.1z M534.1,197.5
	c-2.6,2.4-6.4,1.3-12.4,2.1c-7.9,1-11.8,1.1-17.9,7.5c-26,27.2-67.3,16.2-89-16c-4.8-7.1-8.9-14.7-14.5-21
	c-15.5-17.3-23.7-16.9-40.9-1.1c-12,11-16.6,28.7-31.9,36.5c-2.4,1.2-4.3,3.2-5.3,5.7c-8.5,21.6-26.8,28.4-45.4,13.9
	c-17.2-13.3-31.9-16.2-50-2.8c-12.7,9.4-26.8,7.5-40.3-0.5c-15.6-9.3-28-22.2-40.1-35.2c-13.8-14.9-28-15.3-43.6-4
	c-7.5,5.4-15,11-22.5,16.4c-14.7,10.5-29.2,10.3-43.1-1.5c-5.3-4.5-10.9-8.2-16.8-10.9c-0.8-0.4-1.7-0.8-2.5-1.1
	c-0.8-0.4-1.7-0.7-2.6-1c-0.4-0.1-1.4-0.5-1.4-0.5c-5,0.4-9.4,7.6-13.8,13.3v179.8h534.1V197.5z"/>
<path class="st0" d="M0,534.6h534.1V312.3c-16.3,2.6-32.3,3.5-46.9,11.9c-20.1,11.6-38.9,10.1-57.7-4.3c-34-26.1-36.2-25.7-65.8,4
	c-9.2,9.2-19.3,17-30.1,24c-14.6,9.4-28.5,11.5-43.6,0.3c-14.2-10.6-28.5-9.5-43.7,0.3c-23,14.8-35.9,12.4-53.8-8.6
	c-12-14.1-22.4-29.7-35.2-43.1c-17.5-18.5-33.7-16.3-45.1,8c-11.3,24.2-31.1,34.1-54,41.6c-14.8,4.8-26.5,1.6-34.6-12.7
	c-1-1.7-2-3.4-3.1-4.9c-0.5-0.8-1.1-1.5-1.7-2.3c-0.3-0.4-0.6-0.7-0.8-1.1c-0.9-1.1-1.8-2.1-2.7-3.1c-0.8-0.8-1.6-1.6-2.4-2.3
	c-0.5-0.5-1-0.9-1.5-1.3c-3.4-2.8-7.2-4.9-11.5-6.2V534.6z"/>
<path class="st4" d="M412.6,361.1c-8.1-0.1-14.5-3-14.7-12c-0.2-9,4.7-15.5,14-15.6c8.2-0.1,13,5.9,13.6,13.9
	C426.2,356.1,420.9,360.3,412.6,361.1z"/>
<path class="st4" d="M136.4,321.5c-0.2,6.4-3.2,10.4-8.6,11.3c-6.4,1.1-9.1-3.3-9.4-8.9c-0.3-5.4,1.3-10.3,7.7-10.8
	C132,312.8,134.6,317.2,136.4,321.5z"/>
<path class="st4" d="M73.2,402.9c-6.1-0.1-9.7-3.1-9.8-8.8c-0.1-5.7,3.5-9.1,9.3-9c4.7,0.1,7.9,3,8.4,7.7
	C81.7,398.6,78.6,401.9,73.2,402.9z"/>
<path class="st4" d="M493.1,350.3c4.7,0.6,8.4,2.5,7.8,7.9c-0.5,3.9-3.6,6.2-7.4,6.1c-4.7-0.1-8.4-2.4-7.8-7.8
	C486.1,352.6,489.2,350.7,493.1,350.3z"/>
<path class="st0" d="M58.2,284.5c17.6,0.3,26.7,8.8,27.1,23.4c0.3,14-9.6,22.3-23.2,22.6c-14.8,0.3-24.6-8.6-25-23.4
	C36.6,292.7,47.3,286.6,58.2,284.5z"/>
<path class="st0" d="M310.5,298c11.8,2.5,20.2,8.9,20.4,21.1c0.2,12-6.2,20.4-19.4,20.7c-12.4,0.3-21.1-5.3-21.5-18.4
	C289.7,308.2,298,301,310.5,298z"/>
<path class="st0" d="M227.7,307.9c-2.7,10.4-8.9,18.2-20.3,18.1c-11.1,0-16.6-7.8-16.4-18.4c0.3-11.9,7.3-18.4,19.2-18.2
	C221.6,289.6,226,297.5,227.7,307.9z"/>
<path class="st0" d="M374.4,249.5c-1.8,10.8-7.1,16.9-17,16.5c-9.8-0.4-15.8-6.6-15.4-16.5c0.4-9.8,6.6-15.7,16.5-15.5
	C368.5,234.3,372.9,241.3,374.4,249.5z"/>
<path class="st0" d="M476.7,298.4c-1.2,8.8-5.6,14.2-13.8,14.2c-7.1-0.1-12.2-4.8-12.8-11.9c-0.7-8.3,4.3-13.8,12.3-14.4
	C470.8,285.6,474.8,291.6,476.7,298.4z"/>
<path class="st0" d="M412.9,262.5c-1,7.2-3.9,11.8-10.9,11.1c-5.8-0.5-8.4-4.8-8.5-10.3c-0.2-6.5,2.8-11.3,9.6-11.4
	C410,252,412.3,257.2,412.9,262.5z"/>
<path class="st0" d="M150,235.6c-0.9,5.5-4.1,8.9-10,8.3c-5.8-0.7-8.7-4.5-7.9-10.3c0.7-4.8,4.1-7.5,8.7-7.5
	C146.7,226.1,149.8,229.6,150,235.6z"/>
<path class="st5" d="M243.4,237.5c-0.5,5.6-3.7,9.1-9,9.7c-4.8,0.5-7.8-2.6-8-7.4c-0.2-5.7,3.1-9.2,8.6-9.5
	C239.6,230,243,232.3,243.4,237.5z"/>
<path class="st4" d="M191.4,164.5c11.7,0.6,16.3,7.5,15.7,18.5c-0.5,10.4-6.6,15.3-16.8,15.2c-11.5,0-17-6-16.8-17.3
	C173.8,169.2,180.3,164.3,191.4,164.5z"/>
<path class="st4" d="M323.6,207c-5,2.6-9.7,6.3-15.1,7.6c-9.2,2.2-17.5-0.7-20.9-10.1c-3.4-9.4,1.1-17.1,9.6-21
	c8.8-4,17.1-1.5,21.7,7.4C321.5,195.8,322.1,201.7,323.6,207C323.5,207.1,323.6,207,323.6,207z"/>
<path class="st4" d="M475.3,180.5c-0.4-7.2,2.5-10.7,8.4-10.8c4.5,0,8.5,2.1,8.7,7.3c0.3,5.8-3.4,9.4-8.8,10
	C478.7,187.4,476.2,183.9,475.3,180.5z"/>
</svg>
