<?xml version="1.0" encoding="utf-8"?>
<!-- Generator: Adobe Illustrator 23.0.3, SVG Export Plug-In . SVG Version: 6.00 Build 0)  -->
<svg version="1.1" id="Layer_1" xmlns="http://www.w3.org/2000/svg" xmlns:xlink="http://www.w3.org/1999/xlink" x="0px" y="0px"
	 viewBox="0 0 1920 930" style="enable-background:new 0 0 1920 930;" xml:space="preserve">
<style type="text/css">
	.st0{fill:#7AE1FD;}
	.st1{fill:#53BDFD;}
	.st2{fill:#67D6FD;}
	.st3{fill:#58C6FD;}
	.st4{fill:#FBFDFD;}
	.st5{fill:#F2FCFC;}
</style>
<rect class="st0" width="1920" height="930"/>
<g>
	<path class="st1" d="M1459.4,258.6c-1.8,12.9-11.6,20-22.3,20.5c-31.8,1.5-58.5,18.2-87.8,26.7c-127.1,37.2-254.1,74.7-384.2,100.9
		c-44.4,9-64.6,2.3-88.3-34.4c-21.5-33.3-51-32.1-75.3,2.9c-31.3,4.5-65,3.6-83.5,36.8c-6,0.1-12.1,0.3-18.2,0.4
		c-8.5-1.5-16.7-1.4-24.7,0c-0.9,0.2-1.8,0.3-2.6,0.5c-1.7,0.4-3.5,0.8-5.2,1.3c-0.9,0.3-1.7,0.5-2.6,0.8c-1.3,0.4-2.6,0.9-3.8,1.4
		c-0.8,0.3-1.7,0.7-2.5,1c-1.3,0.5-2.5,1.1-3.7,1.7c-0.8,0.4-1.7,0.8-2.5,1.3c-2,1.1-4.1,2.3-6.1,3.5c-1.8,0.2-3.9,0.2-6,0.2
		c-0.4,0-0.8,0-1.3,0c-0.8,0-1.7,0-2.5,0.1c-3.2,0.1-5.9,0.6-7,2.1c-20.7,30-57.9,23.4-85,38.6c-7.8-1.5-16.1-5.7-23.2-4.2
		c-60.7,13.3-120.8-3.4-181.2-3.3c-34,0.1-69.2-5.2-102.6-15.7c-5.6-1.7-13.1-1.9-13-9.5c0-7.7,7.1-8.4,13.1-8.7
		c72.4-3.2,143.7-16.3,215.6-24.2c34.7-3.8,69.2-9.3,103.8-14c-14.6-12.1-30.3-10.1-45.2-8.3c-81.5,9.6-163.5,12.2-245.4,16.9
		c-90,5.2-177.9-10.3-266.2-22.3V0h1244.2c-0.3,13-10.9,17.4-21.1,22.4c-112.4,55.7-233.6,82.4-356,105.2c-24.3,4.5-48.5,10-72.7,15
		c30,9,59.2,12.6,88.5,14.2c73.9,4.1,146.6-6.8,219.6-16.2c18.6-2.4,42-8,45.9,22.2c-16.2,21.6-38.9,31.6-64.9,35.9h0
		c-0.3,0-0.6,0.1-0.8,0.1c-2,0.3-4,0.6-6,0.8c-36.7,14.5-80,3.7-117.3,27.6c26.7,20,56.3,13.6,82.5,20.7c6.5,12.6,18.7,9.3,29.1,9.5
		c33.9,0.5,67.7,0.3,101.6,0.3c0.7,0.7,1.3,1.7,2.1,2.1c54.8,25.2,116.3-5.3,171.4,20.6c13.3,6.2,15.3-11.8,23-18.1
		c2.7-2.3,9.4,0,14.3,0.4c9.9,0.8,19.9,2.6,28.3-5.1c13.8-0.3,27.7-0.7,41.5-1C1455.2,257.3,1457.3,258,1459.4,258.6z"/>
	<path class="st2" d="M1918.5,549c-0.4,0.1-0.9,0.2-1.4,0.3c-0.5,0.1-1,0.2-1.6,0.3c-0.7,0.2-1.5,0.3-2.2,0.5
		c-0.6,0.1-1.1,0.2-1.7,0.4c-0.2,0-0.4,0.1-0.6,0.1c-1.2,0.3-2.3,0.6-3.5,0.9c-1,0.3-2,0.5-3.1,0.8c-0.7,0.2-1.5,0.4-2.2,0.6
		c-1.5,0.4-2.9,0.9-4.3,1.3c-0.7,0.2-1.4,0.5-2.2,0.7c-1.4,0.5-2.9,1-4.3,1.4c-0.7,0.2-1.4,0.5-2.1,0.7c-3.6,1.3-7.1,2.6-10.6,3.9
		c-0.7,0.3-1.4,0.5-2.1,0.8c-6,2.3-11.9,4.5-17.9,6.6c-0.7,0.3-1.5,0.5-2.2,0.8c-1.7,0.6-3.5,1.2-5.2,1.7
		c-110.9,35.6-223.6,62.6-339.3,76.1c-72,8.4-144.5,14-216.8,1.6c-10.3-1.8-21.1-2.5-30.3-12.7c182.6-31.6,368.1-40,537.1-123
		c-236.4-56.3-471.8-62.9-707.5,6.9c11.5-6.6,23.1-13.3,36.8-21.2c-5.4-2.5-10.5-3.4-15.3-3.4c-0.7,0-1.4,0-2.2,0.1
		c-0.7,0-1.4,0.1-2.1,0.2c-0.7,0.1-1.4,0.2-2.1,0.3c-1.1,0.2-2.1,0.4-3.2,0.6c-0.7,0.1-1.3,0.3-1.9,0.4c-0.3,0.1-0.7,0.2-1,0.2
		c-0.3,0.1-0.7,0.2-1,0.3c-4.4,1.1-8.6,2.5-12.8,3.5c-0.5,0.1-1,0.2-1.6,0.4c-1.4,0.3-2.8,0.5-4.3,0.7l0,0h0c-1.5,1.8-3,3.4-4.5,4.9
		c-0.3,0.2-0.5,0.5-0.8,0.7c-0.4,0.4-0.9,0.8-1.3,1.2c0,0,0,0-0.1,0.1c-0.2,0.2-0.4,0.4-0.7,0.6c-0.2,0.2-0.4,0.4-0.7,0.5
		c-0.6,0.5-1.1,0.9-1.7,1.3c-0.4,0.3-0.7,0.5-1.1,0.8c-0.3,0.2-0.6,0.4-1,0.6c-0.3,0.2-0.6,0.4-1,0.6c0,0,0,0,0,0
		c-0.2,0.1-0.4,0.3-0.6,0.4c-0.1,0.1-0.2,0.1-0.3,0.2c-0.4,0.3-0.9,0.5-1.3,0.7c-0.4,0.2-0.8,0.4-1.2,0.6c0,0-0.1,0-0.1,0
		c-0.4,0.2-0.9,0.4-1.3,0.6c-0.3,0.1-0.6,0.2-0.9,0.4c-0.5,0.2-1,0.4-1.5,0.5c-0.4,0.1-0.8,0.3-1.2,0.4c-0.3,0.1-0.7,0.2-1.1,0.3
		c-0.4,0.1-0.9,0.2-1.3,0.3c-0.4,0.1-0.8,0.2-1.2,0.2c0,0,0,0,0,0c-0.8,0.1-1.6,0.2-2.5,0.3c-0.2,0-0.5,0-0.7,0
		c-0.6,0-1.2,0.1-1.8,0.1c-1,0-1.9,0-2.9-0.1c-0.5,0-1-0.1-1.5-0.2c-2-0.3-4-0.7-6-1.3c-1-0.3-2-0.6-3.1-1c-1-0.4-2.1-0.8-3.1-1.3
		c-0.5-0.2-1-0.5-1.6-0.7c-0.5-0.2-1-0.5-1.6-0.8c-1.6-0.8-3.2-1.7-4.8-2.7c-10.4,0.9-20.7,1.8-31.1,2.7c-5.8,0.5-11.5,1-17.3,1.4
		c-4.2,0-8.3,0.1-12.5,0.1c-4.2,0-8.3,0.1-12.5,0.1c-0.4,0.4-0.8,0.7-1.2,1c-0.8,0.7-1.6,1.3-2.3,1.9c-1.5,1.2-3,2.2-4.6,3.1
		c-0.8,0.4-1.6,0.8-2.4,1.2c-1.6,0.7-3.2,1.1-4.9,1.5c-0.2,0-0.4,0.1-0.6,0.1c-0.2,0-0.4,0.1-0.7,0.1c-0.2,0-0.4,0-0.5,0.1
		c-0.3,0-0.6,0.1-0.9,0.1c-0.1,0-0.3,0-0.4,0c-0.7,0-1.5,0-2.2,0c-0.3,0-0.6,0-0.9,0c-0.3,0-0.6,0-0.9-0.1c-0.6,0-1.2-0.1-1.9-0.2
		c-0.3,0-0.6-0.1-0.9-0.1c-0.3,0-0.6-0.1-0.9-0.1c-0.3,0-0.6-0.1-0.9-0.2c-0.1,0-0.2,0-0.3-0.1c-0.9-0.2-1.9-0.4-2.9-0.6
		c-24.3-5.9-50.9-2.7-76.5-3.3c-37.5,17-77.8,7-116.6,11.5c-158.6,18.3-318,12.7-477.1,11.1c-53.2-0.5-106.3-12.5-159.3-19.5
		c-6.7-0.9-13.3-4.7-24.8,5.4c140.6,52.9,284.4,73.4,429.4,85.9c145.7,12.5,291.7,18.9,438.2,4.9c0.2,3.5,0.4,7,0.6,10.4
		c-34.3,6.7-68.3,15.5-102.9,19.7C701,664.4,564.4,678,427,671.7c-83.2-3.8-165.8-11.6-247.8-30.4c-58.2-13.4-115.3-27.7-170.7-49.6
		C5.9,590.6,3,590.2,0,590V684c51.8,1,101.6,17.4,153.3,20.8c73.2,4.8,146.2,12.9,219.2,21c79.4,8.8,159.1,3.7,238.6,6.7
		c10.9,0.1,21.9,0.2,32.8,0.3c14.8-8.7,28.6-8,46.6-5.5c32.6,4.6,66.9-1.1,100.4-3.6c23.5-1.8,46.8-5.3,74.1-8.6
		c-8.8,15-20.9,14.1-31.5,16.3c-45.2,9.1-90.4,18.2-135.5,27.7c-1.8,0.4-2.7,4.9-4,7.5c12.3,3.1,27.6-2.2,35.8,12.5
		c80.8,3.6,160.4-12,240.6-15.1c50.4-2,100.3-13.4,150.9-8.4c24.5,2.4,47.9-10,73.4,1.2c-145.4,31-290.7,62.1-438,93.5
		c11.5,9.1,22.7,5.4,32.9,5.4c102.7,0.3,205.4,2.8,308-0.5c120-3.8,239.7-11.6,359.1-27.2c96.8-12.6,192.9-27.6,286.4-55.1
		c40.7-11.9,82.1-23.8,119.6-44.7c6.5-3.6,19-3.9,16.8-13.5c-2.6-11.2-15.1-6.7-23.3-6.8c-48.8-0.4-97.7-0.2-146.5-0.4
		c-5.7,0-11.4-1.3-20.3-2.5c7.7-15.1,20.4-17.2,32-20.8c63.3-19.9,125.7-42.3,188-65c4-1.4,7.5-3,10.6-4.6v-65.9
		C1919.5,548.9,1919,549,1918.5,549z M1606.9,736.8c-21.3,1.3-42.7,0.6-64.1,0.8c-63.8,9.3-127.6,4-191.4,4.9
		c-0.6-3.1-1.3-6.1-1.9-9.2c34.8-12.8,69.1-27.4,104.8-37.3c12.5-3.5,23.7-2.8,35.4-13c0.5-0.5,1.1-0.9,1.6-1.3
		c0.5-0.4,1-0.8,1.5-1.2c1-0.8,2.1-1.5,3.1-2.1c0.3-0.2,0.6-0.4,0.9-0.5c0.4-0.2,0.8-0.5,1.2-0.7s0.8-0.4,1.2-0.6
		c0.3-0.2,0.7-0.3,1-0.5c0.2-0.1,0.4-0.2,0.6-0.2c1.3-0.6,2.7-1,4.1-1.4c0.3-0.1,0.5-0.2,0.8-0.2c0.5-0.1,1.1-0.3,1.6-0.4
		c0.6-0.1,1.1-0.2,1.6-0.3c0.4-0.1,0.8-0.1,1.2-0.2c0.1,0,0.3,0,0.4,0c0.3,0,0.6-0.1,0.8-0.1c0.6-0.1,1.1-0.1,1.6-0.1
		c1.8-0.1,3.5-0.1,5.3,0c0.3,0,0.5,0,0.8,0.1c0.2,0,0.5,0,0.7,0.1c0.2,0,0.4,0,0.6,0c1.1,0.1,2.2,0.2,3.3,0.4
		c0.4,0.1,0.9,0.1,1.3,0.2c0.8,0.1,1.6,0.3,2.4,0.5c0.7,0.2,1.4,0.3,2.1,0.5c0.7,0.2,1.4,0.3,2.1,0.5c0.8,0.2,1.7,0.4,2.5,0.7
		c1,0.3,2.1,0.6,3.1,0.9c0.2,0.1,0.4,0.1,0.6,0.2c0.8,0.3,1.7,0.5,2.5,0.8c1,0.3,2.1,0.7,3.1,1c1,0.3,2.1,0.7,3.1,1
		c1.1,0.4,2.2,0.7,3.3,1.1c1.5,0.5,3,1,4.4,1.4c0.3,0.1,0.7,0.2,1.1,0.3c1,0.3,2,0.6,2.9,0.9c0.5,0.2,1.1,0.3,1.7,0.5
		c0.3,0.1,0.6,0.2,0.9,0.3c0.9,0.2,1.8,0.4,2.6,0.6c0.5,0.1,1,0.2,1.5,0.4c2.1,0.4,4.3,0.7,6.4,1.1c2.3,0.4,4.5,0.8,6.8,1.1
		s4.5,0.8,6.8,1.2c1.9,0.3,3.8,0.7,5.8,1c8.1,1.5,20.4-0.5,19.8,11.6c-0.5,10.3-12.2,10.4-20.4,12.6c6,3.9,12,7.9,18,11.8
		C1623.6,731.4,1617.4,736.2,1606.9,736.8z"/>
	<path class="st0" d="M1909.4,619.3c-62.3,22.8-124.7,45.2-188,65c-11.6,3.6-24.3,5.7-32,20.8c9,1.1,14.6,2.4,20.3,2.5
		c48.8,0.2,97.7-0.1,146.5,0.4c8.2,0.1,20.7-4.4,23.3,6.8c2.2,9.6-10.3,9.8-16.8,13.5c-37.5,21-78.9,32.8-119.6,44.7
		c-93.5,27.4-189.6,42.4-286.4,55.1c-119.3,15.6-239.1,23.4-359.1,27.2c-102.6,3.2-205.3,0.8-308,0.5c-10.2,0-21.4,3.7-32.9-5.4
		c147.3-31.4,292.6-62.5,438-93.5c-25.5-11.3-48.9,1.2-73.4-1.2c-50.5-5-100.5,6.5-150.9,8.4c-80.2,3.1-159.8,18.7-240.6,15.1
		c0.7,14.2,10.5,17,22.4,18.4c14.4,1.6,29.5,2.5,44,20.7c-130.8-0.7-256-4.6-381.5-23.6c66.4-19.5,133.3-34.8,196.4-61.9
		c-79.5-3-159.2,2.1-238.6-6.7c-72.9-8.1-146-16.2-219.2-21C101.6,701.5,51.8,685,0,684v246h1920V614.7
		C1916.9,616.4,1913.3,617.9,1909.4,619.3z M95,817.8c-2.4-0.1-5.9-5.1-6.4-8.2c-0.8-4.9,4.3-6.1,8.1-6.4c5.9-0.5,12.1-1.2,17.7,0.1
		c29.3,7.1,58.5,7.3,87.8,0c6.4-1.6,13.7-1.8,25.4,7.5C180.5,826.3,137.6,820,95,817.8z"/>
	<path class="st3" d="M940,628c-34.3,6.7-68.3,15.5-102.9,19.7C701,664.4,564.4,678,427,671.7c-83.2-3.8-165.8-11.6-247.8-30.4
		c-58.2-13.4-115.3-27.7-170.7-49.6C5.9,590.6,3,590.2,0,590V371.9c88.3,11.9,176.3,27.5,266.2,22.3c81.9-4.7,163.8-7.4,245.4-16.9
		c14.9-1.8,30.6-3.8,45.2,8.3c-34.6,4.7-69.1,10.2-103.8,14c-71.9,7.9-143.2,21-215.6,24.2c-6,0.3-13,1-13.1,8.7
		c-0.1,7.6,7.4,7.8,13,9.5c33.4,10.5,68.6,15.7,102.6,15.7c60.4-0.1,120.5,16.5,181.2,3.3c7.1-1.6,15.4,2.6,23.2,4.2
		c-11.9,23-2.2,29.9,21,29.5c87.1-1.5,174.3-2.8,260,17.4c6.8,7.2,15.8,5.7,24.3,6.3c-37.5,17-77.8,7-116.6,11.5
		c-158.6,18.3-318,12.7-477.1,11.1c-53.2-0.5-106.3-12.5-159.3-19.5c-6.7-0.9-13.3-4.7-24.8,5.4c140.6,52.9,284.4,73.4,429.4,85.9
		c145.7,12.5,291.7,18.9,438.2,4.9C939.6,621.1,939.8,624.5,940,628z"/>
	<path class="st4" d="M1231.7,150.8h0.1c0,0,0-0.1,0-0.1L1231.7,150.8z M1231.7,150.8h0.1c0,0,0-0.1,0-0.1L1231.7,150.8z
		 M1231.7,150.8h0.1c0,0,0-0.1,0-0.1L1231.7,150.8z M1231.7,150.8h0.1c0,0,0-0.1,0-0.1L1231.7,150.8z M1231.7,150.8h0.1
		c0,0,0-0.1,0-0.1L1231.7,150.8z M1231.7,150.8h0.1c0,0,0-0.1,0-0.1L1231.7,150.8z M1231.7,150.8h0.1c0,0,0-0.1,0-0.1L1231.7,150.8z
		 M1918.9,232.6c-0.4-0.1-0.7-0.2-1.1-0.4c-0.5-0.2-1-0.3-1.5-0.5c-1-0.3-2-0.7-2.9-1.1c-1-0.4-1.9-0.8-2.9-1.1c0,0,0,0,0,0
		c-1-0.4-1.9-0.8-2.9-1.2c-2.3-1-4.6-1.9-6.9-2.8c-0.3-0.1-0.6-0.2-0.9-0.3c0,0,0,0-0.1,0c-0.3-0.1-0.6-0.2-0.9-0.4
		c-0.8-0.3-1.7-0.6-2.5-0.9c-0.3-0.1-0.6-0.2-0.9-0.3c-0.3-0.1-0.7-0.2-1-0.3c-0.4-0.1-0.9-0.3-1.3-0.4c-1.6-0.5-3.2-0.9-4.8-1.3
		c-0.4-0.1-0.9-0.2-1.3-0.3c-0.5-0.1-1-0.2-1.5-0.3c-0.3,0-0.6-0.1-0.9-0.1c-0.3,0-0.6-0.1-0.9-0.1c-0.1,0-0.3,0-0.4,0
		c-0.4,0-0.8-0.1-1.2-0.1c-0.4,0-0.8-0.1-1.2-0.1c0,0-0.1,0-0.1,0c-0.2,0-0.4,0-0.6,0c-0.4,0-0.9,0-1.3,0c-1.9,0-3.8,0.1-5.7,0.4
		c-8.2,1.2-11.7-5.6-13.5-12.8c-10.9-42-35.5-66.6-82-64c-2.3,0.1-4.8-2.9-7.2-4.4c0,0-0.4-0.4-0.4-0.4v0c0,0,0,0,0,0h0
		c-0.2-0.1-0.5-0.1-0.7-0.2c-1-0.2-1.9-0.4-2.8-0.7c-0.2-0.1-0.4-0.1-0.7-0.2c-0.2-0.1-0.4-0.1-0.6-0.2c0,0-0.1,0-0.1,0
		c-0.2-0.1-0.3-0.2-0.5-0.2c-0.2-0.1-0.3-0.2-0.5-0.3c-0.1-0.1-0.3-0.2-0.4-0.3c-0.1-0.1-0.3-0.2-0.4-0.4c-0.1-0.1-0.2-0.2-0.3-0.3
		c-0.1-0.2-0.2-0.3-0.4-0.5c-0.1-0.1-0.1-0.3-0.2-0.4c-0.1-0.3-0.3-0.7-0.4-1c0-0.2-0.1-0.3-0.1-0.5c-0.1-0.4-0.1-0.9-0.1-1.4
		c-9.5-17.2-11.8-38.1-26.3-52.6c-18.6-18.6-40.6-29.4-67.1-18.4c-21.9,9.1-38.5,9.7-44.7-18c-0.1-0.2-0.1-0.4-0.2-0.6
		c-0.1-0.2-0.1-0.4-0.2-0.6c-0.1-0.5-0.3-0.9-0.4-1.4c-0.1-0.2-0.1-0.5-0.2-0.7c-0.1-0.2-0.1-0.5-0.2-0.7c-0.2-0.5-0.4-1-0.6-1.5
		c0-0.1-0.1-0.2-0.1-0.4c-0.2-0.5-0.4-0.9-0.6-1.4c-0.1-0.2-0.2-0.4-0.3-0.5c-0.1-0.2-0.2-0.4-0.3-0.5c-0.1-0.3-0.3-0.5-0.4-0.8
		c-0.1-0.3-0.3-0.5-0.4-0.8c-0.2-0.3-0.4-0.6-0.6-1c-0.2-0.3-0.4-0.6-0.6-0.9c-0.3-0.5-0.7-1.1-1.1-1.6c-0.2-0.3-0.4-0.5-0.5-0.8
		c-0.7-1-1.5-2-2.3-3c-0.3-0.4-0.7-0.8-1-1.2c-0.5-0.6-1-1.1-1.5-1.7c-0.5-0.5-1-1.1-1.6-1.6c-0.2-0.2-0.4-0.4-0.6-0.6
		c-0.4-0.4-0.9-0.8-1.3-1.2c-3.4-3.3-7.1-6.3-10.7-9.5c-0.6-0.5-1.2-1-1.8-1.6c-0.6-0.5-1.2-1.1-1.8-1.6c-0.5-0.4-0.9-0.8-1.3-1.2
		c-0.4-0.4-0.9-0.8-1.3-1.3c-0.4-0.4-0.9-0.8-1.3-1.3c-0.4-0.4-0.8-0.9-1.2-1.3c-0.8-0.9-1.6-1.8-2.3-2.7h-62.9
		c-0.2,0.5-0.4,1-0.7,1.4c-0.1,0.2-0.2,0.5-0.4,0.7c-0.5,0.9-1,1.6-1.6,2.3c-0.1,0.1-0.2,0.2-0.3,0.4c-0.1,0.2-0.3,0.3-0.4,0.4
		c-0.2,0.2-0.3,0.3-0.5,0.4c-0.1,0.1-0.3,0.2-0.4,0.3c-0.2,0.1-0.3,0.3-0.5,0.4c-0.3,0.2-0.6,0.4-0.9,0.6c-0.1,0.1-0.3,0.2-0.4,0.3
		c-0.3,0.2-0.5,0.3-0.8,0.4c-0.2,0.1-0.4,0.2-0.6,0.2c-0.1,0-0.2,0.1-0.3,0.1c-0.3,0.1-0.6,0.2-0.9,0.3c-0.2,0.1-0.4,0.1-0.6,0.2
		c-0.2,0-0.4,0.1-0.6,0.2c-0.4,0.1-0.8,0.2-1.3,0.2c-0.6,0.1-1.3,0.2-1.9,0.2c-0.4,0-0.9,0.1-1.3,0.1c-0.6,0-1.1,0-1.7,0
		c-0.3,0-0.7,0-1,0c-0.5,0-0.9,0-1.4-0.1c-0.6,0-1.3,0-1.9-0.1c-0.8,0-1.6-0.1-2.4-0.1c0,0,0,0,0,0c-1,0-2.1-0.1-3.1,0
		c-0.2,0-0.5,0-0.7,0c-0.2,0-0.5,0-0.7,0c-0.5,0-1.1,0.1-1.6,0.1c0,0.3,0.1,0.6,0.1,0.9c0,0.1,0,0.3,0.1,0.4c0,0.2,0.1,0.4,0.1,0.5
		c0,0.2,0.1,0.3,0.1,0.5c0,0,0,0,0,0c0,0.1,0,0.2,0.1,0.2c0,0,0,0,0,0c0,0.1,0.1,0.3,0.1,0.4c0,0.2,0.1,0.3,0.2,0.5c0,0,0,0,0,0.1
		c0,0.1,0.1,0.2,0.1,0.4c0,0,0,0,0,0c0,0,0,0,0,0.1c0.1,0.2,0.1,0.3,0.2,0.5c0.1,0.2,0.2,0.4,0.3,0.6c0,0.1,0.1,0.2,0.2,0.3
		c0.1,0.2,0.2,0.3,0.3,0.5c0.1,0.1,0.2,0.3,0.3,0.4c0.1,0.1,0.2,0.3,0.3,0.4c0.1,0.1,0.3,0.3,0.4,0.4c0.2,0.2,0.3,0.3,0.5,0.4
		c0.1,0.1,0.3,0.2,0.4,0.3c0.2,0.2,0.4,0.3,0.6,0.5c0.2,0.1,0.3,0.2,0.5,0.4c0.2,0.1,0.4,0.2,0.5,0.3c0.3,0.2,0.5,0.3,0.8,0.5
		c0.2,0.1,0.5,0.2,0.7,0.4c0.4,0.2,0.9,0.4,1.3,0.6c0.3,0.1,0.6,0.3,0.9,0.4c0.5,0.2,0.9,0.4,1.4,0.6c0.2,0.1,0.3,0.1,0.5,0.2
		c0.4,0.1,0.7,0.3,1,0.4c0.1,0,0.3,0.1,0.4,0.2c0.4,0.2,0.8,0.3,1.1,0.5c0,0,0,0,0,0c0.3,0.1,0.6,0.3,1,0.4c0.3,0.1,0.5,0.3,0.8,0.4
		c0.3,0.1,0.5,0.3,0.8,0.5c0.4,0.2,0.8,0.5,1.2,0.7c0.2,0.1,0.4,0.3,0.6,0.4c0.4,0.3,0.8,0.6,1.1,1c-18.2,18.6-35.8,33.4-65.8,33.5
		c-16.7,0.1-22.5,23.7-25,41.5c-1.6,11.1,3.8,23.2-5.4,34.5c-13-10.3-0.7-27.2-12.6-38.9c-9.6,8.6-6.6,24.7-17.9,31.4
		c0,0-0.3,0.3-0.3,0.3c-0.2,1-0.4,1.9-0.6,2.7c-0.1,0.2-0.1,0.3-0.2,0.5c-0.1,0.2-0.2,0.4-0.2,0.6c-0.1,0.2-0.2,0.5-0.3,0.7
		c-0.1,0.2-0.2,0.4-0.3,0.6c-0.3,0.7-0.7,1.3-1.1,1.8c-0.1,0.2-0.3,0.3-0.4,0.5c-0.4,0.5-0.9,0.9-1.3,1.3c-0.3,0.2-0.5,0.4-0.8,0.6
		c-0.2,0.1-0.5,0.3-0.7,0.4c-0.2,0.1-0.3,0.2-0.5,0.3c-0.2,0.1-0.4,0.2-0.6,0.3c-0.1,0-0.1,0.1-0.2,0.1c-0.3,0.1-0.5,0.2-0.8,0.3
		c-0.3,0.1-0.5,0.1-0.8,0.2c-0.1,0-0.2,0-0.3,0c-0.2,0-0.4,0.1-0.5,0.1c-0.3,0-0.6,0.1-0.9,0.1c-0.3,0-0.6,0-0.9,0
		c-0.7,0-1.5,0-2.3-0.2c-8.3-1.1-9.6-7.7-10.2-14.5c-3.8-1-7.6-2.1-11.4-3.1c-0.2,0.4-0.4,0.7-0.7,1.1c-0.8,1.3-1.6,2.5-2.4,3.7
		c-0.3,0.4-0.5,0.8-0.8,1.1c-0.5,0.7-1.1,1.5-1.6,2.1c-1,1.2-2,2.4-3.1,3.5c-0.3,0.3-0.5,0.5-0.8,0.8c-0.4,0.4-0.8,0.8-1.2,1.2
		c-0.1,0-0.1,0.1-0.1,0.1c-0.6,0.5-1.1,1.1-1.7,1.6c-0.6,0.6-1.3,1.1-1.9,1.6c-0.6,0.5-1.3,1-1.9,1.5c-0.3,0.2-0.6,0.5-1,0.7
		c-0.2,0.1-0.4,0.3-0.5,0.4c-0.3,0.2-0.5,0.3-0.8,0.5c-0.3,0.2-0.5,0.3-0.8,0.5c-0.3,0.2-0.6,0.4-0.9,0.5c-0.4,0.2-0.8,0.5-1.1,0.7
		c-0.3,0.2-0.7,0.4-1,0.6c-0.6,0.3-1.2,0.6-1.7,0.9c-1.3,0.7-2.6,1.3-3.9,1.8c-0.3,0.1-0.5,0.2-0.8,0.3c-0.5,0.2-0.9,0.4-1.3,0.5
		c-0.3,0.1-0.5,0.2-0.8,0.3c-1.2,0.5-2.5,0.9-3.7,1.2c-0.7,0.2-1.5,0.4-2.2,0.6c-0.7,0.2-1.5,0.4-2.2,0.5c-0.6,0.1-1.2,0.3-1.8,0.4
		c-1.2,0.3-2.3,0.5-3.5,0.6c-0.5,0.1-1,0.2-1.5,0.2c-0.7,0.1-1.3,0.2-2,0.3c-0.4,0.1-0.9,0.1-1.3,0.2c-0.4,0.1-0.9,0.1-1.3,0.2
		c-0.5,0-1,0.1-1.4,0.1c-0.7,0.1-1.4,0.1-2,0.2c-0.4,0-0.8,0-1.3,0.1c-0.4,0-0.8,0.1-1.2,0.1c-0.7,0-1.5,0.1-2.2,0.1
		c-0.5,0-1.1,0-1.6,0c-0.5,0-1.1,0-1.6,0c-0.2,0-0.4,0-0.6,0c-0.5,0-1,0-1.5,0c-7.9,0.1-16.1-0.3-24.1-0.6
		c-10.7-0.4-21.5-0.3-32.2-0.4c0,0,0,0.1,0,0.1c0,0.4-0.1,0.7-0.1,1.1c0,0.3-0.1,0.6-0.1,0.8c0,0.1-0.1,0.3-0.1,0.4
		c-0.1,0.3-0.1,0.6-0.2,0.9c0,0,0,0.1,0,0.1c-0.1,0.3-0.2,0.6-0.3,0.9c-0.1,0.2-0.2,0.4-0.2,0.6c-0.1,0.2-0.2,0.4-0.3,0.6
		c-0.1,0.2-0.2,0.4-0.3,0.5c-0.3,0.6-0.7,1.2-1.2,1.7c-0.1,0.2-0.3,0.3-0.4,0.4c0,0,0,0,0,0c0,0.1-0.1,0.1-0.2,0.2
		c-0.2,0.2-0.3,0.3-0.5,0.5c-0.2,0.2-0.5,0.4-0.7,0.6c0,0,0,0,0,0c-0.2,0.2-0.5,0.3-0.8,0.5c-0.1,0.1-0.2,0.1-0.3,0.2
		s-0.2,0.1-0.4,0.2c-0.3,0.1-0.5,0.3-0.8,0.4c-0.6,0.2-1.2,0.4-1.9,0.6c-0.2,0.1-0.5,0.1-0.7,0.2c-0.4,0.1-0.7,0.1-1.1,0.2
		c-0.3,0-0.6,0.1-0.9,0.1c0,0-0.1,0-0.1,0c-0.4,0-0.9,0-1.3,0c-3.4,0-6.9,0-10.3,0c-10.6,19.2-23.7,32.4-47.5,18.9
		c-9.9-5.6-17,1.2-19.3,7.7c-7.8,21.7-19.1,24.1-37.6,11.4c-4.9-3.3-13.5-1.3-20.4-1.7h0c-0.3,0-0.6,0.1-0.8,0.1c-1,0.1-2,0.3-3,0.4
		c-1,0.1-2,0.3-3,0.4c0,0,0,0.1,0,0.1c-0.1,0.4-0.2,0.7-0.3,1.1c-0.1,0.3-0.2,0.6-0.3,0.9c-0.1,0.2-0.2,0.5-0.3,0.7
		c0,0.1-0.1,0.1-0.1,0.2c-0.1,0.3-0.3,0.6-0.4,0.8c-0.7,1.4-1.5,2.7-2.5,4c-0.6,0.9-1.3,1.7-2.1,2.6c-0.4,0.5-0.9,1-1.3,1.5
		c-0.4,0.5-0.9,1-1.4,1.5c-1.2,1.3-2.5,2.6-3.8,3.9c-0.3,0.3-0.6,0.6-0.9,0.9c-0.6,0.6-1.2,1.3-1.8,1.9c-0.3,0.3-0.6,0.6-0.9,1
		c-0.1,0.2-0.3,0.3-0.4,0.5c-0.2,0.3-0.5,0.5-0.7,0.8c-0.3,0.4-0.6,0.7-0.9,1.1c-0.2,0.3-0.5,0.7-0.7,1c-0.2,0.3-0.4,0.6-0.6,1
		c-0.1,0.2-0.2,0.3-0.3,0.5c-0.1,0.2-0.2,0.3-0.3,0.5c-0.2,0.4-0.5,0.9-0.6,1.3c-0.1,0.2-0.2,0.5-0.3,0.7c-0.1,0.2-0.1,0.3-0.2,0.5
		c0,0.1-0.1,0.3-0.1,0.4c-0.1,0.2-0.1,0.4-0.2,0.5c-0.1,0.2-0.1,0.4-0.1,0.6c-0.1,0.3-0.1,0.6-0.1,0.9c0,0.2-0.1,0.4-0.1,0.7
		c0,0.2,0,0.4,0,0.6c0,2.1,0.6,4.3,2,6.6c9.1,15.3,30.8,5.8,46.9,6.7c27.5,1.4,55.2,0.9,82.8,1.3c27,0,54.1-0.1,81.1-0.1
		c27,0,54.1-0.1,81.1-0.1c4.4-0.2,8.9-0.4,13.3-0.5c0.2,0,0.4,0,0.6,0c1.7-0.1,3.3-0.1,4.9-0.2c2.1-0.1,4.2-0.1,6.4-0.2
		c1.6,0,3.1-0.1,4.7-0.1c0.6,0,1.2,0,1.8,0c2.7,0,5.4,0,8.1,0c1.5,0,3,0,4.5,0.1c1.5,0,3,0.1,4.5,0.1c0.7,0,1.5,0.1,2.2,0.1
		c1.8,0.1,3.6,0.2,5.4,0.3c0.6,0,1.2,0.1,1.8,0.1c0.8,0.1,1.7,0.1,2.5,0.2c0.9,0.1,1.9,0.2,2.8,0.3c1.4,0.2,2.9,0.3,4.3,0.5
		c0.8,0.1,1.5,0.2,2.3,0.3c1.6,0.2,3.2,0.5,4.8,0.8c0.9,0.2,1.9,0.3,2.8,0.5c0.7,0.1,1.3,0.3,1.9,0.4c0.6,0.1,1.2,0.2,1.8,0.4
		c0.6,0.1,1.2,0.3,1.8,0.4c0.8,0.2,1.5,0.3,2.3,0.5c0.3,0.1,0.7,0.2,1,0.2c0.7,0.2,1.4,0.4,2.1,0.6c0.6,0.2,1.3,0.4,1.9,0.5
		c0.7,0.2,1.3,0.4,2,0.6c0.6,0.2,1.3,0.4,1.9,0.6c0.6,0.2,1.3,0.4,1.9,0.6c0.6,0.2,1.2,0.4,1.7,0.6c1,0.3,2,0.7,2.9,1
		c0,0,0.1,0,0.1,0c1,0.4,1.9,0.7,2.9,1.1c2.1,0.7,4.2,1.3,6.3,2c4-0.6,8-1.2,12-1.8c1.3-1.2,2.5-2.3,3.8-3.3c0.4-0.3,0.9-0.7,1.3-1
		c0.9-0.6,1.8-1.3,2.6-1.8c0.5-0.3,0.9-0.6,1.3-0.8c0.9-0.5,1.8-1,2.7-1.5c0.5-0.2,0.9-0.5,1.4-0.7c0.9-0.4,1.8-0.9,2.8-1.2
		c0.4-0.2,0.8-0.3,1.2-0.5c0.2-0.1,0.4-0.1,0.6-0.2c0.2-0.1,0.4-0.2,0.6-0.2c0.3-0.1,0.5-0.2,0.8-0.3c0.8-0.3,1.7-0.5,2.5-0.8
		c1.9-0.5,3.8-1,5.8-1.3c1-0.2,2-0.3,2.9-0.5c0,0,0,0,0,0c1-0.1,2-0.3,3-0.4c1-0.1,2-0.2,3-0.3c0.3,0,0.6,0,0.9-0.1
		c0.3,0,0.6,0,0.8,0c0.5,0,1-0.1,1.6-0.1c0.6,0,1.1,0,1.7,0c0.7,0,1.4,0,2,0c1.6,0,3.2,0,4.8,0c0.9,0,1.9,0,2.8,0.1
		c0.9,0,1.7,0,2.6,0.1c0.8,0,1.7,0.1,2.6,0.1c0.8,0,1.5,0.1,2.3,0.1c1.7,0.1,3.5,0.1,5.2,0.2c0.8,0,1.6,0.1,2.4,0.1
		c0.9,0,1.7,0,2.5,0.1c0.9,0,1.8,0,2.6,0c18.1,0.1,37.1,2.5,55.7,3.9c5.5-0.6,11.1-1.2,16.6-1.8c0.4-10,0-21.6,14-21.7
		c25.3-0.3,50.8-3.8,81,3.5c-15.2,11.1-28.2,6.1-39.9,7.6c-11,1.5-24.8-4.8-31,10.6c15.6,0.5,31.2,1.1,46.8,1.6
		c24.4-0.2,48.9-14.3,73.3,0.1c33.7,0.1,67.3,0.3,101,0.4c11.9-0.8,23.9-1.5,35.9-2.3c8-0.5,16-1,23.9-1.5v-10
		C1919.6,232.8,1919.3,232.7,1918.9,232.6z M1090.9,232.6c-3.7,1.1-8,0.6-9.4-3.6c-0.4-1.3,2.5-4.8,4.6-5.5
		c3.6-1.3,7.5-0.5,10.3,4.5C1094.7,229.5,1093.1,232,1090.9,232.6z M1132,229.2c-1.2,0.1-2.5,0.2-3.7,0.2c-0.2,0-0.3-1.6-0.4-2.5
		c1.6-0.1,3.1-0.4,4.7-0.3c0.2,0,0.3,1.6,0.4,2.5C1132.6,229.1,1132.3,229.1,1132,229.2z M1313.4,168.5c-11,8.3-19.3,7.7-30.6,0.8
		C1293.5,161.1,1301.8,161.9,1313.4,168.5z M1244.3,228.2c23.8-8.3,47.6-5.9,71.5-1.3C1292.2,237,1268.3,234.9,1244.3,228.2z
		 M1353.3,185.6c-3.6,0.8-7.5,0.1-9.1-5.5c1.8-1.3,3.7-3.5,5.9-4c3.7-0.7,8.1-0.1,8.5,4.6C1358.8,182.2,1355.5,185.1,1353.3,185.6z
		 M1390.5,216.8c10.7-8.3,19.1-7.5,30.7-1C1410.3,224.2,1401.9,223.5,1390.5,216.8z M1231.7,150.8h0.1c0,0,0-0.1,0-0.1L1231.7,150.8
		z M1231.7,150.8h0.1c0,0,0-0.1,0-0.1L1231.7,150.8z M1231.7,150.8h0.1c0,0,0-0.1,0-0.1L1231.7,150.8z M1231.7,150.8h0.1
		c0,0,0-0.1,0-0.1L1231.7,150.8z M1231.7,150.8h0.1c0,0,0-0.1,0-0.1L1231.7,150.8z M1231.7,150.8h0.1c0,0,0-0.1,0-0.1L1231.7,150.8z
		 M1231.7,150.8h0.1c0,0,0-0.1,0-0.1L1231.7,150.8z M1495.3,9C1495.3,9,1495.3,9,1495.3,9L1495.3,9L1495.3,9z M1231.7,150.8h0.1
		c0,0,0-0.1,0-0.1L1231.7,150.8z"/>
	<path class="st3" d="M1231.7,150.8C1231.8,150.8,1231.8,150.8,1231.7,150.8c0.1-0.1,0.1-0.1,0.1-0.1L1231.7,150.8z"/>
	<path class="st3" d="M1483.4,0c0,2.8,0,5.7,0,8.5c-69.1,24.6-93.1,54.4-95.6,118.7c0,0-0.3,0.3-0.3,0.3c-7.9-1.2-15.9-2.5-23.8-3.7
		c-3.8-1-7.6-2.1-11.4-3.1h0c-38.6,7.6-77.1,15.2-115.6,23.2c-0.4,0.1-0.8,0.4-1.2,0.8c-0.1,0.1-0.2,0.2-0.3,0.3
		c-0.1,0.1-0.1,0.2-0.2,0.3c-0.1,0.1-0.1,0.1-0.1,0.2c-1,1.5-1.9,3.8-2.9,5.4v0h0c-0.2,0-0.4,0.1-0.6,0.2c-0.4,0.1-0.8,0.2-1.1,0.3
		c-0.2,0-0.3,0.1-0.4,0.2c-0.2,0.1-0.4,0.2-0.6,0.3c-0.2,0.1-0.4,0.2-0.5,0.3c-0.2,0.1-0.3,0.2-0.5,0.3c-0.2,0.1-0.3,0.2-0.5,0.3
		c-0.3,0.2-0.6,0.4-0.9,0.6c-0.9,0.7-1.7,1.4-2.5,2.2c-0.3,0.3-0.5,0.5-0.7,0.8c-0.2,0.2-0.4,0.5-0.6,0.7c-0.9,1.1-1.7,2.2-2.5,3.4
		c-0.2,0.3-0.5,0.7-0.7,1c-0.3,0.4-0.6,0.8-0.8,1.2c-3.4,0-6.9,0-10.3,0c-20.1-12.5-39.9,2.8-59.9,0.4
		c-3.9-30.2-27.2-24.6-45.9-22.2c-72.9,9.4-145.7,20.3-219.6,16.2c-29.3-1.6-58.5-5.3-88.5-14.2c24.2-5,48.4-10.5,72.7-15
		c122.4-22.8,243.5-49.5,356-105.2c10.2-5,20.8-9.5,21.1-22.4H1483.4z"/>
	<path class="st1" d="M1920,0v83.7c0,0,0,0,0,0c-0.3-0.2-0.5-0.4-0.7-0.6c0,0,0,0,0,0c-0.1-0.1-0.2-0.2-0.3-0.3c0,0,0,0,0,0
		c-0.1-0.1-0.2-0.2-0.4-0.3c-0.2-0.2-0.4-0.5-0.7-0.7c-0.2-0.2-0.3-0.4-0.5-0.6c-0.1-0.1-0.1-0.2-0.2-0.3c-0.2-0.2-0.3-0.5-0.5-0.7
		c0-0.1-0.1-0.1-0.1-0.2c-0.2-0.3-0.3-0.5-0.4-0.8c-0.1-0.3-0.3-0.5-0.4-0.8c-0.2-0.4-0.3-0.7-0.5-1.1c-0.2-0.4-0.3-0.8-0.4-1.2
		c-0.1-0.3-0.2-0.6-0.3-1c-0.9-2.5-1.6-5.3-2.5-8.2c-0.1-0.2-0.1-0.4-0.2-0.6c-0.2-0.6-0.4-1.3-0.6-1.9c0,0,0,0,0-0.1
		c-0.1-0.3-0.2-0.5-0.3-0.8c-0.4-1.1-0.8-2.3-1.3-3.4c-0.2-0.4-0.4-0.9-0.6-1.3c-0.2-0.4-0.4-0.9-0.6-1.3c-0.6-1.1-1.3-2.2-2-3.3
		c-0.2-0.2-0.3-0.4-0.5-0.6c-0.2-0.3-0.4-0.5-0.6-0.8c-0.2-0.3-0.4-0.5-0.6-0.8c-0.4-0.5-0.9-1-1.3-1.5c-0.2-0.2-0.5-0.5-0.7-0.7
		c-0.7-0.7-1.5-1.4-2.4-2.1c11.4,37.2-1.7,53.6-27.7,67.5c-14,7.5-24.9,14.8-39.9,9.7c-4-1.4-7.5-1.9-10.7-1.8c-0.2,0-0.3,0-0.5,0
		c0,0-0.1,0-0.1,0c-0.2,0-0.4,0-0.6,0.1h-0.1c-0.1,0-0.3,0-0.4,0c-0.3,0-0.5,0.1-0.7,0.1c-0.1,0-0.2,0-0.3,0
		c-0.4,0.1-0.7,0.1-1.1,0.2c0,0-0.1,0-0.1,0c-0.3,0.1-0.7,0.2-1,0.3c-0.4,0.1-0.7,0.2-1.1,0.3c-0.2,0.1-0.3,0.1-0.5,0.2
		c-0.3,0.1-0.5,0.2-0.8,0.3c-0.3,0.1-0.7,0.3-1,0.5c-0.5,0.3-1,0.5-1.4,0.8c-0.2,0.1-0.5,0.3-0.7,0.5c-0.2,0.2-0.5,0.3-0.7,0.5
		c-0.2,0.2-0.5,0.3-0.7,0.5c0,0,0,0,0,0c-0.2,0.2-0.4,0.3-0.7,0.5c-0.3,0.3-0.6,0.5-1,0.8c-0.1,0.1-0.2,0.2-0.3,0.3
		c-0.2,0.2-0.4,0.4-0.6,0.6c-0.2,0.2-0.4,0.4-0.6,0.6c-0.2,0.2-0.3,0.3-0.5,0.5c-0.1,0.2-0.3,0.3-0.4,0.5c-0.1,0.1-0.2,0.2-0.3,0.4
		c-0.2,0.2-0.4,0.5-0.6,0.7c-0.2,0.2-0.4,0.5-0.6,0.7c-0.4,0.5-0.8,1-1.2,1.5c0,0,0,0,0,0c-0.3,0.5-0.7,0.9-1,1.4
		c0,0-0.1,0.1-0.1,0.1c-0.4,0.5-0.7,1.1-1.1,1.6c-0.2,0.3-0.4,0.6-0.5,0.8c-5,0.2-10.1,0.4-15.1,0.6c-5,0.2-10.1,0.4-15.1,0.6
		c0,0-0.4-0.4-0.4-0.4l0,0h0c-2.7-2.2-5.5-4.4-8.2-6.6c-9.5-17.2-11.8-38.1-26.3-52.6c-18.6-18.6-40.6-29.4-67.1-18.4
		c-21.9,9.1-38.5,9.7-44.7-18c-0.1-0.2-0.1-0.4-0.2-0.6c-0.1-0.2-0.1-0.4-0.2-0.6c-0.1-0.5-0.3-0.9-0.4-1.4
		c-0.1-0.2-0.1-0.5-0.2-0.7c-0.1-0.2-0.1-0.5-0.2-0.7c-0.2-0.5-0.4-1-0.6-1.5c0-0.1-0.1-0.2-0.1-0.4c-0.2-0.5-0.4-0.9-0.6-1.4
		c-0.1-0.2-0.2-0.4-0.3-0.5c-0.1-0.2-0.2-0.4-0.3-0.5c-0.1-0.3-0.3-0.5-0.4-0.8c-0.1-0.3-0.3-0.5-0.4-0.8c-0.2-0.3-0.4-0.6-0.6-1
		c-0.2-0.3-0.4-0.6-0.6-0.9c-0.3-0.5-0.7-1.1-1.1-1.6c-0.2-0.3-0.4-0.5-0.5-0.8c-0.7-1-1.5-2-2.3-3c-0.3-0.4-0.7-0.8-1-1.2
		c-0.5-0.6-1-1.1-1.5-1.7c-0.5-0.5-1-1.1-1.6-1.6c-0.2-0.2-0.4-0.4-0.6-0.6c-0.4-0.4-0.9-0.8-1.3-1.2c-3.4-3.3-7.1-6.3-10.7-9.5
		c-0.6-0.5-1.2-1-1.8-1.6c-0.6-0.5-1.2-1.1-1.8-1.6c-0.5-0.4-0.9-0.8-1.3-1.2c-0.4-0.4-0.9-0.8-1.3-1.3c-0.4-0.4-0.9-0.8-1.3-1.3
		c-0.4-0.4-0.8-0.9-1.2-1.3c-0.8-0.9-1.6-1.8-2.3-2.7H1920z"/>
	<path class="st2" d="M1898.8,213.6c6.9,1.9,14.1,3.2,21.3,4.5V233c-0.4-0.1-0.7-0.2-1.1-0.3c-0.4-0.1-0.7-0.2-1.1-0.4
		c-0.5-0.2-1-0.3-1.5-0.5c-1-0.3-2-0.7-2.9-1.1c-1-0.4-1.9-0.8-2.9-1.1c0,0,0,0,0,0c-1-0.4-1.9-0.8-2.9-1.2c-2.3-1-4.6-1.9-6.9-2.8
		c-0.3-0.1-0.6-0.2-0.9-0.3c0,0,0,0-0.1,0c-0.3-0.1-0.6-0.2-0.9-0.4c-0.8-0.3-1.7-0.6-2.5-0.9c-0.3-0.1-0.6-0.2-0.9-0.3
		c-0.3-0.1-0.7-0.2-1-0.3c-0.4-0.1-0.9-0.3-1.3-0.4c-1.6-0.5-3.2-0.9-4.8-1.3c-0.4-0.1-0.9-0.2-1.3-0.3c-0.5-0.1-1-0.2-1.5-0.3
		c-0.3,0-0.6-0.1-0.9-0.1c-0.3,0-0.6-0.1-0.9-0.1c-0.1,0-0.3,0-0.4,0c-0.4,0-0.8-0.1-1.2-0.1c-0.4,0-0.8-0.1-1.2-0.1
		c0,0-0.1,0-0.1,0c-0.2,0-0.4,0-0.6,0c-0.4,0-0.9,0-1.3,0c-1.9,0-3.8,0.1-5.7,0.4c-8.2,1.2-11.7-5.6-13.5-12.8
		c-10.9-42-35.5-66.6-82-64c-2.3,0.1-4.8-2.9-7.2-4.4c5-0.2,10.1-0.4,15.1-0.6c5-0.2,10-0.4,15.1-0.6c32.6-7,49,14.5,65.3,36.3
		c0.4,8.4-0.8,17.1,6,23.9c0.4,0.4,0.9,0.8,1.3,1.2c0.9,0.8,1.7,1.5,2.6,2.3c2.3,1.9,4.8,3.5,7.3,4.9c0.3,0.2,0.7,0.4,1,0.6
		c0.8,0.4,1.6,0.8,2.5,1.2c0.3,0.1,0.6,0.3,0.9,0.4c2.7,1.2,5.4,2.2,8.2,3.1c0.3,0.1,0.7,0.2,1,0.3
		C1897.4,213.2,1898.1,213.4,1898.8,213.6z"/>
	<path class="st5" d="M1524.3,0c-0.2,0.5-0.4,1-0.7,1.4c-0.1,0.2-0.2,0.5-0.4,0.7c-0.5,0.9-1,1.6-1.6,2.3c-0.1,0.1-0.2,0.2-0.3,0.4
		c-0.1,0.2-0.3,0.3-0.4,0.4c-0.2,0.2-0.3,0.3-0.5,0.4c-0.1,0.1-0.3,0.2-0.4,0.3c-0.2,0.1-0.3,0.3-0.5,0.4c-0.3,0.2-0.6,0.4-0.9,0.6
		c-0.1,0.1-0.3,0.2-0.4,0.3c-0.3,0.2-0.5,0.3-0.8,0.4c-0.2,0.1-0.4,0.2-0.6,0.2c-0.1,0-0.2,0.1-0.3,0.1c-0.3,0.1-0.6,0.2-0.9,0.3
		c-0.2,0.1-0.4,0.1-0.6,0.2c-0.2,0-0.4,0.1-0.6,0.2c-0.4,0.1-0.8,0.2-1.3,0.2c-0.6,0.1-1.3,0.2-1.9,0.2c-0.4,0-0.9,0.1-1.3,0.1
		c-0.6,0-1.1,0-1.7,0c-0.3,0-0.7,0-1,0c-0.5,0-0.9,0-1.4-0.1c-0.6,0-1.3,0-1.9-0.1c-0.8,0-1.6-0.1-2.4-0.1c0,0,0,0,0,0
		c-1,0-2.1-0.1-3.1,0c-0.2,0-0.5,0-0.7,0c-0.2,0-0.5,0-0.7,0c-0.5,0-1.1,0.1-1.6,0.1c0,0,0,0,0,0v0c0-3,0.1-6,0.1-9H1524.3z"/>
	<path class="st2" d="M1495.3,9L1495.3,9C1495.3,9,1495.3,9,1495.3,9L1495.3,9z"/>
	<path class="st2" d="M1495.3,0c0,3-0.1,6-0.1,9c-4-0.2-8-0.3-11.9-0.5c0-2.8,0-5.7,0-8.5H1495.3z"/>
	<path class="st3" d="M1920,285.9v262.8c-0.5,0.1-1,0.2-1.5,0.3c-0.4,0.1-0.9,0.2-1.4,0.3c-0.5,0.1-1,0.2-1.6,0.3
		c-0.7,0.2-1.5,0.3-2.2,0.5c-0.6,0.1-1.1,0.2-1.7,0.4c-0.2,0-0.4,0.1-0.6,0.1c-1.2,0.3-2.3,0.6-3.5,0.9c-1,0.3-2,0.5-3.1,0.8
		c-0.7,0.2-1.5,0.4-2.2,0.6c-1.5,0.4-2.9,0.9-4.3,1.3c-0.7,0.2-1.4,0.5-2.2,0.7c-1.4,0.5-2.9,1-4.3,1.4c-0.7,0.2-1.4,0.5-2.1,0.7
		c-3.6,1.3-7.1,2.6-10.6,3.9c-0.7,0.3-1.4,0.5-2.1,0.8c-6,2.3-11.9,4.5-17.9,6.6c-0.7,0.3-1.5,0.5-2.2,0.8c-1.7,0.6-3.5,1.2-5.2,1.7
		c-110.9,35.6-223.6,62.6-339.3,76.1c-72,8.4-144.5,14-216.8,1.6c-10.3-1.8-21.1-2.5-30.3-12.7c182.6-31.6,368.1-40,537.1-123
		c-236.4-56.3-471.8-62.9-707.5,6.9c11.5-6.6,23.1-13.3,36.8-21.2c-5.4-2.5-10.5-3.4-15.3-3.4c-0.7,0-1.4,0-2.2,0.1
		c-0.7,0-1.4,0.1-2.1,0.2c-0.7,0.1-1.4,0.2-2.1,0.3c-1.1,0.2-2.1,0.4-3.2,0.6c-0.7,0.1-1.3,0.3-1.9,0.4c-0.3,0.1-0.7,0.2-1,0.2
		c-0.3,0.1-0.7,0.2-1,0.3c-4.4,1.1-8.6,2.5-12.8,3.5c-0.5,0.1-1,0.2-1.6,0.4c-1.4,0.3-2.8,0.5-4.3,0.7c-14-18.9-34.4-17.9-54.7-17.3
		c-27.3-13.4-66.3,18.2-87.4-32.5c-12.9-31.1-54.1-50.8-82.6-75.6c-19.1-14.7-38.6-0.9-57.9-0.9c24.3-35.1,53.8-36.2,75.3-2.9
		c23.7,36.7,43.9,43.3,88.3,34.4c130.1-26.3,257-63.8,384.2-100.9c29.3-8.6,56-25.2,87.8-26.7c10.8-0.5,20.6-7.6,22.3-20.5
		c4-0.6,8-1.2,12-1.8c28.1,0.1,56.1,0.3,84.2,0.4c4.6,4.5,10.2,6.1,16.3,4.7c36-8.5,72.5-3.2,108.7-4.2
		c-18.8,12.4-40.1,19.2-60.7,27.9c-123,52.1-251.1,85.4-382.2,108.9c-29.3,5.2-58.6,10.3-87.7,15.9c-6.1,1.2-16.4,0.4-14.8,10.3
		c1.2,7.9,10.1,8.3,17.2,8.6c4,0.2,8,0.3,11.9,0.2c76.4-2.7,152.8,0.9,229.4-4.4c100.9-7.1,202-9.5,301.3-31.3
		c61.8-13.5,122.4-29.7,178-62.5C1892.6,319.7,1903.6,299.8,1920,285.9z"/>
	<path class="st4" d="M859.3,376.3c28.5,24.8,69.7,44.4,82.6,75.6c21,50.7,60.1,19.1,87.4,32.5c9.2,7.3,23.8,5.6,33.2,18.6
		c-12.7,2.6-22.7,4.7-32.6,6.8c-10.4,0.9-20.7,1.8-31.1,2.7c-6.2-5.2-12-4.5-17.3,1.4c-8.3,0.1-16.7,0.1-25,0.2
		c-10.5-2.2-20.9-5.8-31.4-6.2c-33.1-1.4-66.2-1.5-99.4-2.1c9.4-18.9,2.6-25.6-17.4-23.4c-9.8,1.1-19.8,0.6-29.7,0.9
		c-28.7,0-57.5,0.1-86.2,0.1c-5.5-0.5-11-1.1-16.5-1.6c-6-13.6-12-13.5-18,0.1c-32.9,2.2-65.7,3.2-103-2.2
		c17.8-19.9,35.6-21.9,54.4-20.8c33.7,0.1,67.4,0.2,101.1,0.1c8,0,17.1-0.6,17.3-11.4c0.2-10.9-8.8-11-16.8-12
		c-12-1.4-25.2,3.4-37-4.8c6.6-11.1,23.9-3.5,25.9-18.1c6.1-0.1,12.1-0.3,18.2-0.4c33.8-9.4,68.2-17.3,101.1-29
		C832.7,378.3,845.5,376.4,859.3,376.3z"/>
	<path class="st2" d="M675.9,481.7c5.5,0.5,11,1.1,16.6,1.6c28.8,8.9,57.5,7.8,86.2-0.1c9.9-0.2,19.9,0.2,29.7-0.9
		c20.1-2.2,26.9,4.4,17.4,23.4c-0.1,2.1-0.3,4.2-0.4,6.3c-85.7-20.2-172.9-18.9-260-17.4c-23.1,0.4-32.9-6.5-21-29.5
		c27.1-15.2,64.3-8.7,85-38.6c2.2-3.1,11-1.7,16.8-2.4c-2.4,21.8-15.7,32.3-36.8,34.7c-18.8-1.1-36.6,0.9-54.4,20.8
		c37.3,5.4,70.1,4.4,103,2.2C663.9,481.7,669.9,481.7,675.9,481.7z"/>
	<path class="st3" d="M1186.9,246.8c54.1-0.1,108.1-0.1,162.2-0.2c19.8,9.4,42,5.3,62.5,11c-8.3,7.7-18.4,5.9-28.3,5.1
		c-4.9-0.4-11.5-2.7-14.3-0.4c-7.7,6.3-9.7,24.4-23,18.1c-55.2-25.8-116.7,4.7-171.4-20.6c-0.8-0.4-1.4-1.4-2.1-2.1
		c16.4-2,33.5,2.7,49.6-6.3c-12.7,0-25.3,0-38,0C1185.1,250,1186,248.4,1186.9,246.8z"/>
	<path class="st5" d="M1186.9,246.8c-0.9,1.6-1.8,3.2-2.8,4.7c-47.4-2.6-95,4.9-142.2-3.5c-26.2-7.1-55.8-0.8-82.5-20.7
		c37.3-23.9,80.6-13,117.3-27.6c-3.6,15-28.7,23.8-19.6,39.1c9.1,15.3,30.8,5.8,46.9,6.7C1131.6,247,1159.3,246.5,1186.9,246.8z"/>
	<path class="st5" d="M609.3,458.8c21.1-2.4,34.4-12.9,36.8-34.7c16.5-10.3,34.2-14.8,53.7-11.4c-2,14.5-19.3,7-25.9,18.1
		c11.8,8.2,25,3.4,37,4.8c8,0.9,17.1,1,16.8,12c-0.2,10.9-9.3,11.4-17.3,11.4C676.7,459,643,458.8,609.3,458.8z"/>
	<path class="st5" d="M1148.5,162.9c20,2.4,39.9-13,59.9-0.4c-10.6,19.2-23.7,32.4-47.5,18.9c-9.9-5.6-17,1.2-19.3,7.7
		c-7.8,21.7-19.1,24.1-37.6,11.4c-4.9-3.3-13.5-1.3-20.4-1.7C1109.5,194.5,1132.3,184.5,1148.5,162.9z"/>
	<path class="st5" d="M859.3,376.3c-13.8,0.1-26.6,2-40.2,6.8c-33,11.8-67.3,19.6-101.1,29c18.4-33.2,52.1-32.3,83.5-36.8
		C820.7,375.4,840.3,361.6,859.3,376.3z"/>
	<path class="st2" d="M1041.9,248.1c47.2,8.4,94.8,0.8,142.2,3.5c12.7,0,25.3,0,38,0c-16.1,9-33.1,4.3-49.6,6.3
		c-33.9-0.1-67.7,0.1-101.6-0.3C1060.6,257.4,1048.4,260.7,1041.9,248.1z"/>
	<path class="st5" d="M1411.6,257.7c-20.5-5.7-42.7-1.6-62.5-11c35.1-1.4,70.3-3.4,104,10C1439.3,257,1425.4,257.3,1411.6,257.7z"/>
	<path class="st5" d="M729.7,779c0.7,14.2,10.5,17,22.4,18.4c14.4,1.6,29.5,2.5,44,20.7c-130.8-0.7-256-4.6-381.5-23.6
		c66.4-19.5,133.3-34.8,196.4-61.9c10.9,0.1,21.9,0.2,32.8,0.3c15.4,13.2,27.4,31.1,50.1,33.8C706.3,769.6,721.5,764.3,729.7,779z"
		/>
	<path class="st5" d="M1590.3,714c6,3.9,12,7.8,18,11.8c-25.1,13-53.8,2.6-79.4,13c4.6-0.4,9.3-0.8,13.9-1.2
		c-63.8,9.3-127.6,4-191.4,4.9c-0.6-3.1-1.3-6.1-1.9-9.2c34.8-12.8,69.1-27.4,104.8-37.3c12.5-3.5,23.7-2.8,35.4-13
		c24-21.1,50.3-2.9,75.4,2.3c2.5,8.4,6.1,16.7,7.2,25.3C1575.1,731.6,1584.2,713.9,1590.3,714z"/>
	<path class="st0" d="M694,766.5c-22.6-2.6-34.7-20.6-50.1-33.8c14.8-8.7,28.6-8,46.6-5.5c32.6,4.6,66.9-1.1,100.4-3.6
		c23.5-1.8,46.8-5.4,74.1-8.6c-8.8,15-20.9,14.2-31.5,16.3c-45.2,9.1-90.4,18.2-135.5,27.7C696.2,759.4,695.3,763.9,694,766.5z"/>
	<path class="st0" d="M825.4,512c0.1-2.1,0.3-4.2,0.4-6.3c33.1,0.6,66.3,0.8,99.4,2.1c10.5,0.4,20.9,4,31.4,6.2
		c-8.8,7.9-15.6,11.2-30.3,7.6c-24.3-5.9-50.9-2.7-76.5-3.3C841.2,517.7,832.2,519.2,825.4,512z"/>
	<path class="st5" d="M1029.9,509.7c10-2.1,20-4.2,32.6-6.8c-9.4-13-24-11.3-33.2-18.6c20.3-0.6,40.7-1.6,54.7,17.3
		C1068.4,520.4,1050.3,522.3,1029.9,509.7z"/>
	<path class="st0" d="M1590.3,714c-6.1-0.1-15.2,17.6-17.9-3.3c-1.1-8.6-4.7-16.9-7.2-25.3c8.6,1.5,17.2,2.8,25.7,4.4
		c8.1,1.5,20.4-0.5,19.8,11.6C1610.2,711.7,1598.5,711.8,1590.3,714z"/>
	<path class="st0" d="M1542.9,737.6c-4.6,0.4-9.3,0.8-13.9,1.2c25.6-10.5,54.2,0,79.4-13c15.3,5.6,9.2,10.4-1.4,11.1
		C1585.6,738.2,1564.2,737.5,1542.9,737.6z"/>
	<path class="st0" d="M981.5,513.8c5.3-6,11-6.6,17.3-1.4C993.1,512.9,987.3,513.3,981.5,513.8z"/>
	<path class="st1" d="M1896.1,244.5c8-0.5,16-1,23.9-1.5v43c-16.4,13.9-27.4,33.7-47.1,45.3c-55.5,32.7-116.1,48.9-178,62.5
		c-99.2,21.7-200.3,24.2-301.3,31.3c-76.7,5.4-153,1.7-229.4,4.4c-4,0.1-8,0-11.9-0.2c-7.1-0.4-15.9-0.8-17.2-8.6
		c-1.6-9.9,8.8-9.1,14.8-10.3c29.2-5.7,58.5-10.7,87.7-15.9c131.1-23.4,259.2-56.8,382.2-108.9c20.6-8.7,41.9-15.5,60.7-27.9
		c38.6,0.2,79.7-7.8,115,3c29.6,9.1,45.3,0.9,64.6-13.9C1872.2,246,1884.1,245.2,1896.1,244.5z"/>
	<path class="st2" d="M227.5,810.9c-47,15.5-90,9.1-132.5,6.9c-2.4-0.1-5.9-5.1-6.4-8.2c-0.8-4.9,4.3-6.1,8.1-6.4
		c5.9-0.5,12.1-1.2,17.7,0.1c29.3,7.1,58.5,7.3,87.8,0C208.6,801.8,215.8,801.5,227.5,810.9z"/>
	<path class="st5" d="M1483.3,8.5c4,0.1,8,0.3,12,0.4c0.9,11.5,13.1,10.3,19.1,16.2c-18.2,18.6-35.8,33.4-65.8,33.6
		c-16.7,0.1-22.5,23.7-25,41.5c-1.6,11.1,3.7,23.2-5.4,34.5c-13-10.3-0.7-27.2-12.6-38.9c-9.6,8.6-6.6,24.7-17.9,31.4
		C1390.2,62.9,1414.2,33.1,1483.3,8.5z"/>
	<path class="st0" d="M1860.2,246.8c-19.3,14.8-35,22.9-64.6,13.9c-35.3-10.8-76.4-2.8-115-3c-36.3,1.1-72.8-4.3-108.7,4.2
		c-6.1,1.4-11.7-0.2-16.3-4.7c13.9-4.9,29.7-2.5,42.7-10.8c5.5-0.6,11.1-1.2,16.6-1.8c8.1,0,16.1,0,24.2,0
		c15.6,0.5,31.2,1.1,46.8,1.6c24.4,7.9,48.9,8.3,73.3,0.1C1792.9,246.5,1826.6,246.6,1860.2,246.8z"/>
	<path class="st5" d="M1231.7,150.8c1.6-2.4,2.8-6.6,4.8-7c38.5-8,77.1-15.5,115.7-23.2c-20.7,34.6-54.7,31.8-88.1,30.5
		C1253.3,150.8,1242.5,150.9,1231.7,150.8z"/>
	<path class="st5" d="M1598.3,246.4c-13,8.3-28.8,5.9-42.7,10.8c-28.1-0.1-56.1-0.3-84.2-0.4c20.5-19.6,47.5-14.4,71.2-14.3
		C1560.8,242.7,1579.7,245,1598.3,246.4z"/>
	<path class="st5" d="M1639.1,244.6c-8.1,0-16.1,0-24.2,0c0.4-10,0-21.6,14-21.7c25.2-0.3,50.8-3.8,81,3.5
		c-15.2,11.1-28.2,6.1-39.9,7.7C1659,235.5,1645.3,229.2,1639.1,244.6z"/>
	<path class="st5" d="M1244.3,228.2c23.8-8.3,47.6-5.9,71.5-1.3C1292.2,237,1268.3,234.9,1244.3,228.2z"/>
	<path class="st5" d="M1759.2,246.3c-24.4,8.2-48.9,7.9-73.3-0.1C1710.3,246,1734.8,232,1759.2,246.3z"/>
	<path class="st5" d="M1421.2,215.8c-10.9,8.4-19.3,7.7-30.7,1C1401.2,208.5,1409.6,209.3,1421.2,215.8z"/>
	<path class="st5" d="M1313.4,168.5c-11,8.3-19.3,7.7-30.6,0.8C1293.5,161.1,1301.8,161.9,1313.4,168.5z"/>
	<path class="st5" d="M1363.6,123.8c7.9,1.2,15.9,2.5,23.8,3.7c-1.3,7.6-5.7,11.8-13.6,10.8C1365.5,137.2,1364.2,130.5,1363.6,123.8
		z"/>
	<path class="st5" d="M1096.4,228.1c-1.7,1.5-3.3,3.9-5.4,4.6c-3.7,1.1-8,0.6-9.4-3.6c-0.4-1.3,2.5-4.8,4.6-5.5
		C1089.7,222.3,1093.6,223.1,1096.4,228.1z"/>
	<path class="st5" d="M1344.2,180.1c1.8-1.3,3.7-3.5,5.9-4c3.7-0.7,8.1-0.1,8.5,4.6c0.1,1.5-3.2,4.4-5.3,4.9
		C1349.7,186.4,1345.8,185.6,1344.2,180.1z"/>
	<path class="st5" d="M1133,229.1c-1.6,0.1-3.1,0.4-4.7,0.3c-0.2,0-0.3-1.6-0.4-2.5c1.6-0.1,3.1-0.4,4.7-0.3
		C1132.7,226.6,1132.8,228.2,1133,229.1z"/>
	<path class="st5" d="M1218.7,162.5c3.4-4.9,6.5-10.3,13.1-11.7C1231.1,158.6,1226.7,162.4,1218.7,162.5z"/>
	<path class="st2" d="M1761.8,132.9c2.7,2.2,5.5,4.4,8.2,6.6C1766.3,138.5,1762,138.3,1761.8,132.9z"/>
	<path class="st3" d="M1920,83.7c-0.3-0.2-0.5-0.4-0.7-0.6c0,0,0,0,0,0c-0.1-0.1-0.2-0.2-0.3-0.3c0,0,0,0,0,0
		c-0.1-0.1-0.2-0.2-0.4-0.3c-0.2-0.2-0.4-0.5-0.7-0.7c-0.2-0.2-0.3-0.4-0.5-0.6c-0.1-0.1-0.1-0.2-0.2-0.3c-0.2-0.2-0.3-0.5-0.5-0.7
		c0-0.1-0.1-0.1-0.1-0.2c-0.2-0.3-0.3-0.5-0.4-0.8c-0.1-0.3-0.3-0.5-0.4-0.8c-0.2-0.4-0.3-0.7-0.5-1.1c-0.2-0.4-0.3-0.8-0.4-1.2
		c-0.1-0.3-0.2-0.6-0.3-1c-0.9-2.5-1.6-5.3-2.5-8.2c-0.1-0.2-0.1-0.4-0.2-0.6c-0.2-0.6-0.4-1.3-0.6-1.9c0,0,0,0,0-0.1
		c-0.1-0.3-0.2-0.5-0.3-0.8c-0.4-1.1-0.8-2.3-1.3-3.4c-0.2-0.4-0.4-0.9-0.6-1.3c-0.2-0.4-0.4-0.9-0.6-1.3c-0.6-1.1-1.3-2.2-2-3.3
		c-0.2-0.2-0.3-0.4-0.5-0.6c-0.2-0.3-0.4-0.5-0.6-0.8c-0.2-0.3-0.4-0.5-0.6-0.8c-0.4-0.5-0.9-1-1.3-1.5c-0.2-0.2-0.5-0.5-0.7-0.7
		c-0.7-0.7-1.5-1.4-2.4-2.1c11.4,37.2-1.7,53.6-27.7,67.5c-14,7.5-24.9,14.8-39.9,9.7c-4-1.4-7.5-1.9-10.7-1.8c-0.2,0-0.3,0-0.5,0
		c0,0-0.1,0-0.1,0c-0.2,0-0.4,0-0.6,0.1h-0.1c-0.1,0-0.3,0-0.4,0c-0.3,0-0.5,0.1-0.7,0.1c-0.1,0-0.2,0-0.3,0
		c-0.4,0.1-0.7,0.1-1.1,0.2c0,0-0.1,0-0.1,0c-0.3,0.1-0.7,0.2-1,0.3c-0.4,0.1-0.7,0.2-1.1,0.3c-0.2,0.1-0.3,0.1-0.5,0.2
		c-0.3,0.1-0.5,0.2-0.8,0.3c-0.3,0.1-0.7,0.3-1,0.5c-0.5,0.3-1,0.5-1.4,0.8c-0.2,0.1-0.5,0.3-0.7,0.5c-0.2,0.2-0.5,0.3-0.7,0.5
		c-0.2,0.2-0.5,0.3-0.7,0.5c0,0,0,0,0,0c-0.2,0.2-0.4,0.3-0.7,0.5c-0.3,0.3-0.6,0.5-1,0.8c-0.1,0.1-0.2,0.2-0.3,0.3
		c-0.2,0.2-0.4,0.4-0.6,0.6c-0.2,0.2-0.4,0.4-0.6,0.6c-0.2,0.2-0.3,0.3-0.5,0.5c-0.1,0.2-0.3,0.3-0.4,0.5c-0.1,0.1-0.2,0.2-0.3,0.4
		c-0.2,0.2-0.4,0.5-0.6,0.7c-0.2,0.2-0.4,0.5-0.6,0.7c-0.4,0.5-0.8,1-1.2,1.5c0,0,0,0,0,0c-0.3,0.5-0.7,0.9-1,1.4
		c0,0-0.1,0.1-0.1,0.1c-0.4,0.5-0.7,1.1-1.1,1.6c-0.2,0.3-0.4,0.6-0.5,0.8c0,0,0,0,0,0c32.6-7,49,14.5,65.3,36.3
		c4.1-0.1,8.2-0.1,12.3-0.2c0.7-2.8,0.9-5.8,2.2-8.2c3.2-5.9,6.9-11.9,14.8-11.6c5,0.2,5.9,4.7,5.6,8.4
		c-0.8,10.4-8.9,10.9-16.9,11.3c-1.9,0.1-3.8,0.1-5.8,0.1c-0.2,8.5,1.1,17.4-6.3,24c0.4,0.4,0.9,0.8,1.3,1.2
		c0.9,0.8,1.7,1.5,2.6,2.3c2.3,1.9,4.8,3.5,7.3,4.9c0.3,0.2,0.7,0.4,1,0.6c0.8,0.4,1.6,0.8,2.5,1.2c0.3,0.1,0.6,0.3,0.9,0.4
		c2.7,1.2,5.4,2.2,8.2,3.1c0.3,0.1,0.7,0.2,1,0.3c0.7,0.2,1.4,0.4,2.1,0.6c6.9,1.9,14.1,3.2,21.3,4.5L1920,83.7
		C1920,83.7,1920,83.7,1920,83.7z M1892.9,197c-1.5-0.9-4.1-1.6-4.5-3c-1.1-3.7,1.5-5.6,4.8-5.5c1.7,0,4.3,1.5,4.7,2.8
		C1899.1,194.9,1896.5,196.5,1892.9,197z"/>
	<path class="st1" d="M1865.9,175c4.1-0.1,8.2-0.1,12.3-0.2l0,0c-0.2,8.5,1.1,17.4-6.3,24C1865.1,192.1,1866.3,183.4,1865.9,175z"/>
	<path class="st5" d="M778.7,483.2c-28.7,7.9-57.5,9-86.2,0.1C721.2,483.3,749.9,483.2,778.7,483.2z"/>
	<path class="st5" d="M675.9,481.7c-6,0-12,0-18,0.1C663.9,468.2,669.9,468.1,675.9,481.7z"/>
	<path class="st1" d="M1878.2,174.8c0.7-2.8,0.9-5.8,2.2-8.2c3.2-5.9,6.9-11.9,14.8-11.6c5,0.2,5.9,4.7,5.6,8.4
		c-0.8,10.4-8.9,10.9-16.9,11.3C1882,174.8,1880.1,174.8,1878.2,174.8C1878.2,174.9,1878.2,174.8,1878.2,174.8z"/>
	<path class="st1" d="M1892.9,196.9c-1.5-0.9-4.1-1.6-4.5-3c-1.1-3.6,1.5-5.6,4.8-5.5c1.7,0,4.3,1.5,4.7,2.8
		C1899,194.9,1896.5,196.5,1892.9,196.9z"/>
</g>
</svg>
